<svg width="83" height="83" viewBox="0 0 83 83" fill="none" xmlns="http://www.w3.org/2000/svg">
<g clip-path="url(#clip0_1240:1809)">
<path d="M82.2603 76.5631L71.9759 66.2787C70.7685 65.0706 69.2764 64.3149 67.7136 64.0114V43.2668C68.0496 43.295 68.3843 43.3087 68.7184 43.3087C71.8933 43.3087 74.9576 42.0625 77.2623 39.7578C80.2184 36.8018 81.4327 32.5983 80.5111 28.5124C80.3754 27.9093 79.9043 27.4389 79.3012 27.3025C75.216 26.3816 71.0119 27.5959 68.0565 30.5519C67.9389 30.6689 67.8256 30.789 67.7136 30.9097V22.5278C70.1729 20.6466 71.6168 17.7532 71.6168 14.6201C71.6168 11.183 69.8789 8.03241 66.9679 6.19312C66.4449 5.86279 65.7793 5.86279 65.2562 6.19312C62.3453 8.03241 60.6073 11.183 60.6073 14.6201C60.6073 17.7532 62.0512 20.6466 64.5105 22.5278V24.6299C61.8767 22.0217 58.1468 20.9525 54.5214 21.7702C53.9183 21.9066 53.4472 22.3777 53.3115 22.9801C52.49 26.6237 53.573 30.3723 56.2087 33.0087C58.2644 35.0644 60.9971 36.1755 63.8286 36.1755C64.0557 36.1755 64.2828 36.1661 64.5105 36.1524V42.5849C64.3022 42.344 64.0851 42.1088 63.8574 41.8811C60.6761 38.7005 56.1655 37.3754 51.7662 38.3207C51.4102 35.8364 49.2694 33.9208 46.6894 33.9208H36.3974L31.6021 27.33C30.924 26.3972 30.0794 25.6165 29.1278 25.0102C31.9224 23.8428 33.8919 21.082 33.8919 17.8695V14.0408H36.3612C37.2458 14.0408 37.9627 13.3238 37.9627 12.4392C37.9627 11.5546 37.2458 10.8377 36.3612 10.8377H34.3323V8.27202C34.3323 5.75269 32.2828 3.70319 29.7635 3.70319H22.1917C19.6724 3.70319 17.6229 5.75269 17.6229 8.27202V10.8377H15.594C14.7094 10.8377 13.9924 11.5546 13.9924 12.4392C13.9924 13.3238 14.7094 14.0408 15.594 14.0408H18.4218V17.8695C18.4218 20.3632 19.6092 22.5841 21.4472 23.9999C17.7605 25.1754 15.0823 28.6319 15.0823 32.7034V50.1417C15.0823 53.8897 17.1299 57.1666 20.1641 58.9177V69.2071H5.77442C2.99295 69.2071 0.729492 71.4706 0.729492 74.2521C0.729492 77.0335 2.99295 79.297 5.77442 79.297H7.83643C8.72105 79.297 9.43799 78.58 9.43799 77.6954C9.43799 76.8108 8.72105 76.0939 7.83643 76.0939H5.77442C4.75905 76.0939 3.93262 75.2674 3.93262 74.2521C3.93262 73.2367 4.75905 72.4103 5.77442 72.4103H21.7657C22.6503 72.4103 23.3672 71.6933 23.3672 70.8087V60.0989C23.9653 60.2096 24.5809 60.2703 25.2109 60.2703H28.3834V70.6292C28.3834 73.6427 25.9316 76.0939 22.9187 76.0939H20.6489C19.7643 76.0939 19.0474 76.8108 19.0474 77.6954C19.0474 78.58 19.7643 79.297 20.6489 79.297H22.9187C27.6983 79.297 31.5865 75.4088 31.5865 70.6292V60.2703H37.4441V74.2521C37.4441 77.0335 39.7076 79.297 42.489 79.297C45.2711 79.297 47.5339 77.0335 47.5339 74.2521V56.8751C47.5339 52.0954 43.6464 48.2073 38.8667 48.2073H31.1517V44.1045C31.3081 44.1546 31.4726 44.1815 31.6409 44.1815H46.6894C47.9969 44.1815 49.1912 43.6891 50.0983 42.8808C50.1953 46.1947 51.541 49.3722 53.9533 51.7851C56.4595 54.2913 59.7909 55.6458 63.2424 55.6458C63.6641 55.6458 64.087 55.6245 64.5105 55.5838V64.0171C62.9565 64.3236 61.4744 65.0769 60.2733 66.2787L50.0364 76.5155C49.4108 77.1405 49.4108 78.1546 50.0364 78.7802C50.6614 79.4058 51.6761 79.4058 52.3011 78.7802L62.538 68.544C64.5155 66.5658 67.733 66.5658 69.7112 68.544L79.9956 78.8278C80.3084 79.1406 80.7182 79.297 81.128 79.297C81.5378 79.297 81.9475 79.1406 82.2603 78.8278C82.886 78.2022 82.886 77.1881 82.2603 76.5631ZM64.4849 32.9436C62.2652 33.1319 60.0768 32.3462 58.474 30.744C56.8718 29.1411 56.0848 26.9534 56.2743 24.7331C58.494 24.5442 60.6824 25.3306 62.2852 26.9327C63.8874 28.5356 64.6738 30.7239 64.4849 32.9436ZM70.3212 32.8166C72.2462 30.8922 74.89 29.9707 77.5589 30.2554C77.8429 32.923 76.922 35.568 74.9976 37.4924C73.0726 39.4174 70.4288 40.3383 67.7599 40.0537C67.7312 39.7822 67.718 39.5113 67.7136 39.241V38.9295C67.7581 36.6547 68.6677 34.4701 70.3212 32.8166ZM66.1121 9.53888C67.5691 10.8133 68.4137 12.6475 68.4137 14.6207C68.4137 16.5933 67.5691 18.4276 66.1121 19.7019C64.655 18.4276 63.8105 16.5939 63.8105 14.6207C63.8105 12.6475 64.655 10.8133 66.1121 9.53888ZM30.6887 17.8695C30.6887 20.3682 28.6555 22.4014 26.1568 22.4014C23.6575 22.4014 21.6249 20.3682 21.6249 17.8695V14.0408H30.6887V17.8695ZM20.826 8.27202C20.826 7.51879 21.4385 6.90631 22.1917 6.90631H29.7635C30.5167 6.90631 31.1292 7.51879 31.1292 8.27202V10.8377H20.826V8.27202ZM38.8667 51.4104C41.8797 51.4104 44.3308 53.8622 44.3308 56.8751V74.2521C44.3308 75.2674 43.505 76.0939 42.489 76.0939C41.4736 76.0939 40.6472 75.2674 40.6472 74.2521V58.6687C40.6472 57.7847 39.9303 57.0672 39.0457 57.0672H25.2103C21.8257 57.0672 19.0017 54.6254 18.4036 51.4104H38.8667ZM46.6894 40.9783H32.3591L29.248 37.4805C28.6599 36.8193 27.6476 36.7605 26.9864 37.3479C26.3257 37.936 26.2663 38.9482 26.8544 39.6095L27.9486 40.8388V48.2073H18.2854V32.7034C18.2854 29.4333 20.9461 26.7726 24.2162 26.7726C26.1068 26.7726 27.8998 27.6854 29.0121 29.2143L34.2873 36.4645C34.5888 36.8793 35.0699 37.1239 35.5823 37.1239H46.6894C47.7523 37.1239 48.6169 37.9885 48.6169 39.0514C48.6169 40.1137 47.7517 40.9783 46.6894 40.9783ZM64.4429 52.3707C61.415 52.7317 58.4027 51.7044 56.2187 49.5204C54.0347 47.3364 53.0062 44.3235 53.3678 41.2955C56.3951 40.9327 59.4087 41.9624 61.5927 44.1464C63.4701 46.0239 64.4905 48.5144 64.5105 51.1001V51.3266C64.5055 51.6738 64.4842 52.0222 64.4429 52.3707Z" fill="#116E9B"/>
<path d="M14.242 76.0936C13.8204 76.0936 13.4093 76.265 13.1097 76.5628C12.8119 76.8606 12.6417 77.2741 12.6417 77.6952C12.6417 78.1162 12.8119 78.5297 13.1097 78.8275C13.4093 79.1253 13.8204 79.2967 14.242 79.2967C14.6631 79.2967 15.076 79.1253 15.3756 78.8275C15.6734 78.5297 15.8449 78.1162 15.8449 77.6952C15.8449 77.2741 15.6734 76.8606 15.3756 76.5628C15.076 76.265 14.6631 76.0936 14.242 76.0936Z" fill="#116E9B"/>
</g>
<defs>
<clipPath id="clip0_1240:1809">
<rect width="82" height="82" fill="white" transform="translate(0.889648 0.5)"/>
</clipPath>
</defs>
</svg>
