<svg width="60" height="55" viewBox="0 0 60 55" fill="none" xmlns="http://www.w3.org/2000/svg">
<path d="M31.875 18.9062C31.875 17.957 31.0355 17.1875 30 17.1875C28.9645 17.1875 28.125 17.957 28.125 18.9062V30.4614L22.7672 38.647C22.2344 39.4609 22.5224 40.5167 23.4103 41.0051C24.2983 41.4934 25.45 41.2295 25.9828 40.4155L31.6078 31.8218C31.7826 31.5547 31.875 31.249 31.875 30.9375V18.9062Z" fill="#106994"/>
<path d="M24.375 0C23.3395 0 22.5 0.769511 22.5 1.71875C22.5 2.66799 23.3395 3.4375 24.375 3.4375H26.25V7.11887C13.5281 8.78759 3.75 18.8151 3.75 30.9375C3.75 38.6977 7.75861 45.5987 13.9745 49.9968L11.7174 52.0659C10.9851 52.7371 10.9851 53.8254 11.7174 54.4966C12.4496 55.1678 13.6368 55.1678 14.369 54.4966L17.1661 51.9326C20.9618 53.8861 25.3413 55 30 55C34.6587 55 39.0382 53.8861 42.8339 51.9326L45.631 54.4966C46.3632 55.1678 47.5504 55.1678 48.2826 54.4966C49.0149 53.8254 49.0149 52.7371 48.2826 52.0659L46.0255 49.9968C52.2414 45.5987 56.25 38.6977 56.25 30.9375C56.25 18.8151 46.4719 8.78759 33.75 7.11887V3.4375H35.625C36.6605 3.4375 37.5 2.66799 37.5 1.71875C37.5 0.769511 36.6605 0 35.625 0H24.375ZM28.2672 10.3727C28.8388 10.3328 29.4166 10.3125 30 10.3125C30.5834 10.3125 31.1612 10.3328 31.7328 10.3727C43.3486 11.1827 52.5 20.0812 52.5 30.9375C52.5 38.2376 48.364 44.6533 42.114 48.3212C38.6182 50.3729 34.4635 51.5625 30 51.5625C25.5365 51.5625 21.3818 50.3729 17.886 48.3212C11.636 44.6533 7.5 38.2376 7.5 30.9375C7.5 20.0812 16.6514 11.1827 28.2672 10.3727Z" fill="#106994"/>
<path d="M0 12.0312C0 14.6209 1.24956 16.943 3.22614 18.5186C6.11213 13.3008 10.76 9.04029 16.4521 6.39479C14.7333 4.58293 12.2001 3.4375 9.375 3.4375C4.19733 3.4375 0 7.28505 0 12.0312Z" fill="#106994"/>
<path d="M50.625 3.4375C47.7999 3.4375 45.2667 4.58293 43.5479 6.39479C49.2401 9.04029 53.8879 13.3008 56.7739 18.5186C58.7504 16.943 60 14.6209 60 12.0312C60 7.28505 55.8027 3.4375 50.625 3.4375Z" fill="#106994"/>
</svg>
