<svg width="83" height="83" viewBox="0 0 83 83" fill="none" xmlns="http://www.w3.org/2000/svg">
<g clip-path="url(#clip0_1240:1818)">
<path d="M81.7021 25.1167L74.2408 23.1175V16.9965C74.2408 16.1119 73.5238 15.3949 72.6392 15.3949H45.4199L13.9444 6.96099C13.5339 6.85096 13.0968 6.90861 12.7291 7.12098C12.3613 7.33335 12.0928 7.68313 11.983 8.09344L10.0265 15.3949H2.4912C1.60666 15.3949 0.889648 16.1119 0.889648 16.9965V51.5903C0.889648 52.4749 1.60666 53.1919 2.4912 53.1919H11.6165C12.5011 53.1919 13.2181 52.4749 13.2181 51.5903C13.2181 50.7058 12.5011 49.9888 11.6165 49.9888H4.09275V18.598H71.0377V49.9888H51.9587C51.5714 48.7972 50.9486 47.7117 50.1456 46.7857H62.9128C63.7974 46.7857 64.5144 46.0687 64.5144 45.1841C64.5144 44.2365 65.2852 43.4657 66.2329 43.4657C67.1174 43.4657 67.8344 42.7486 67.8344 41.8641V26.7227C67.8344 25.8382 67.1174 25.1212 66.2329 25.1212C65.2852 25.1212 64.5144 24.3503 64.5144 23.4027C64.5144 22.5182 63.7974 21.8011 62.9128 21.8011H12.2174C11.3329 21.8011 10.6159 22.5182 10.6159 23.4027C10.6159 24.3503 9.84505 25.1212 8.89742 25.1212C8.01288 25.1212 7.29586 25.8382 7.29586 26.7227V41.8641C7.29586 42.7486 8.01288 43.4657 8.89742 43.4657C9.84505 43.4657 10.6159 44.2365 10.6159 45.1841C10.6159 46.0687 11.3329 46.7857 12.2174 46.7857H36.1528C35.3498 47.7117 34.7269 48.7972 34.3397 49.9888H26.0305C25.146 49.9888 24.429 50.7058 24.429 51.5903C24.429 52.4749 25.146 53.1919 26.0305 53.1919H33.8959C34.0794 58.1385 38.1586 62.1066 43.1492 62.1066C47.0629 62.1066 50.4151 59.6652 51.7691 56.2265L71.9195 61.6258C72.056 61.6623 72.1953 61.6804 72.334 61.6804C72.6128 61.6804 72.8892 61.6076 73.1348 61.4658C73.5026 61.2535 73.771 60.9037 73.8809 60.4934L82.8344 27.0783C83.0636 26.2238 82.5565 25.3455 81.7021 25.1167ZM14.6624 10.4695L33.0442 15.3949H13.3425L14.6624 10.4695ZM10.499 40.5299V28.0568C11.9268 27.5642 13.0589 26.432 13.5515 25.0042H61.5789C62.0715 26.432 63.2037 27.5642 64.6315 28.0568V40.5299C63.2037 41.0225 62.0715 42.1546 61.5789 43.5826H13.5515C13.0589 42.1546 11.9268 41.0225 10.499 40.5299ZM43.1494 58.9035C39.8084 58.9035 37.0904 56.1855 37.0904 52.8445C37.0904 49.5035 39.8084 46.7855 43.1494 46.7855C46.4902 46.7855 49.2084 49.5035 49.2084 52.8445C49.2084 56.1855 46.4902 58.9035 43.1494 58.9035ZM71.2015 58.1173L52.8197 53.1919H72.5214L71.2015 58.1173ZM74.2408 46.7748V26.4335L79.326 27.7961L74.2408 46.7748Z" fill="#116E9B"/>
<path d="M37.5652 28.528C34.386 28.528 31.7996 31.1143 31.7996 34.2936C31.7996 37.4728 34.386 40.0592 37.5652 40.0592C40.7445 40.0592 43.3309 37.4728 43.3309 34.2936C43.3309 31.1143 40.7445 28.528 37.5652 28.528ZM37.5652 36.8561C36.1523 36.8561 35.0027 35.7065 35.0027 34.2936C35.0027 32.8807 36.1523 31.7311 37.5652 31.7311C38.9781 31.7311 40.1277 32.8807 40.1277 34.2936C40.1277 35.7065 38.9781 36.8561 37.5652 36.8561Z" fill="#116E9B"/>
<path d="M50.778 35.8947H53.821C54.7055 35.8947 55.4225 35.1776 55.4225 34.2931C55.4225 33.4085 54.7055 32.6915 53.821 32.6915H50.778C49.8935 32.6915 49.1765 33.4085 49.1765 34.2931C49.1765 35.1776 49.8935 35.8947 50.778 35.8947Z" fill="#116E9B"/>
<path d="M24.3524 32.6915H21.3094C20.4249 32.6915 19.7079 33.4085 19.7079 34.2931C19.7079 35.1776 20.4249 35.8947 21.3094 35.8947H24.3524C25.237 35.8947 25.954 35.1776 25.954 34.2931C25.954 33.4085 25.237 32.6915 24.3524 32.6915Z" fill="#116E9B"/>
<path d="M22.137 57.5692C17.03 57.5692 12.8749 61.7241 12.8749 66.8314C12.8749 71.9384 17.0298 76.0935 22.137 76.0935C27.2442 76.0935 31.3992 71.9386 31.3992 66.8314C31.3992 61.7241 27.2441 57.5692 22.137 57.5692ZM22.137 72.8902C18.7962 72.8902 16.078 70.1722 16.078 66.8312C16.078 63.4902 18.796 60.7722 22.137 60.7722C25.478 60.7722 28.1961 63.4902 28.1961 66.8312C28.1961 70.1722 25.4779 72.8902 22.137 72.8902Z" fill="#116E9B"/>
<path d="M19.9562 52.7218C20.254 52.4239 20.4254 52.0123 20.4254 51.5895C20.4254 51.1683 20.254 50.7551 19.9562 50.4572C19.6583 50.1593 19.2451 49.9879 18.8239 49.9879C18.401 49.9879 17.9894 50.1593 17.6915 50.4572C17.3937 50.7551 17.2223 51.1683 17.2223 51.5895C17.2223 52.0123 17.3937 52.4239 17.6915 52.7218C17.9894 53.0213 18.401 53.191 18.8239 53.191C19.2451 53.191 19.6583 53.0213 19.9562 52.7218Z" fill="#116E9B"/>
</g>
<defs>
<clipPath id="clip0_1240:1818">
<rect width="82" height="82" fill="white" transform="translate(0.889648 0.5)"/>
</clipPath>
</defs>
</svg>
