<svg xmlns="http://www.w3.org/2000/svg" width="33" height="32" viewBox="0 0 33 32" fill="none">
  <path d="M20.437 1.77009C18.1626 1.77014 16.3035 2.49524 15.0131 3.81802C13.723 5.14041 13.0166 7.04441 13.0166 9.37343V12.3448H9.39994C9.18335 12.3448 8.97563 12.4308 8.82247 12.584C8.66932 12.7371 8.58328 12.9448 8.58328 13.1614V18.2948C8.58328 18.5114 8.66932 18.7191 8.82247 18.8722C8.97563 19.0254 9.18335 19.1114 9.39994 19.1114H13.0166V29.2548C13.0166 29.4714 13.1027 29.6791 13.2558 29.8322C13.409 29.9854 13.6167 30.0714 13.8333 30.0714H19.1373C19.3539 30.0714 19.5616 29.9854 19.7147 29.8322C19.8679 29.6791 19.9539 29.4714 19.9539 29.2548V19.1114H23.5585C23.5586 19.1114 23.5586 19.1114 23.5586 19.1114C23.7569 19.1115 23.9484 19.0395 24.0974 18.9088C24.2465 18.778 24.3429 18.5975 24.3687 18.4009L24.3687 18.4006L25.0313 13.2676C25.0464 13.1523 25.0368 13.0352 25.003 12.924C24.9692 12.8127 24.912 12.71 24.8353 12.6226C24.7586 12.5353 24.6642 12.4653 24.5583 12.4174C24.4524 12.3695 24.3375 12.3447 24.2213 12.3448C24.2213 12.3448 24.2212 12.3448 24.2212 12.3448H19.9539V9.88276C19.9539 9.23305 20.023 8.83088 20.2476 8.58147C20.4686 8.33602 20.8784 8.19943 21.6813 8.19943H24.3999C24.6165 8.19943 24.8243 8.11339 24.9774 7.96023C25.1306 7.80708 25.2166 7.59935 25.2166 7.38276V2.7895C25.2166 2.78948 25.2166 2.78945 25.2166 2.78943C25.2167 2.59118 25.1447 2.39967 25.0139 2.25063C24.8832 2.10156 24.7027 2.00514 24.5061 1.97937L24.5061 1.97932L24.5024 1.97893C23.1521 1.83568 21.795 1.76597 20.437 1.77009ZM20.437 1.77009C20.4371 1.77009 20.4372 1.77009 20.4373 1.77009V1.92009L20.4368 1.7701C20.4369 1.7701 20.437 1.77009 20.437 1.77009ZM19.1359 13.9794H19.1356C18.9193 13.979 18.712 13.8928 18.5592 13.7397C18.4064 13.5865 18.3206 13.3791 18.3206 13.1628V9.88276C18.3206 9.1968 18.4033 8.36469 18.8746 7.70292C19.3533 7.03069 20.2085 6.56611 21.6798 6.56609L19.1359 13.9794ZM19.1359 13.9794H23.2933L22.8401 17.4794H19.1373C18.9207 17.4794 18.713 17.5655 18.5598 17.7186C18.4067 17.8718 18.3206 18.0795 18.3206 18.2961V28.4368H14.6499V18.2961C14.6499 18.0795 14.5639 17.8718 14.4107 17.7186C14.2576 17.5655 14.0499 17.4794 13.8333 17.4794H10.2179V13.9794H13.8333C14.0499 13.9794 14.2576 13.8934 14.4107 13.7402C14.5639 13.5871 14.6499 13.3794 14.6499 13.1628V9.37343C14.6499 7.48606 15.1962 5.99724 16.1823 4.98088C17.1678 3.96509 18.6098 3.40343 20.4373 3.40343C21.6972 3.40343 22.8421 3.468 23.5833 3.52864V6.56486L21.6799 6.56609L19.1359 13.9794Z" fill="white" stroke="white" stroke-width="0.3"/>
</svg>