<svg width="60" height="55" viewBox="0 0 60 55" fill="none" xmlns="http://www.w3.org/2000/svg">
<path d="M9.375 51.5626C8.33947 51.5626 7.5 50.7931 7.5 49.8438C7.5 48.8946 8.33947 48.1251 9.375 48.1251H13.125V44.6876C13.125 38.5341 17.0448 33.2232 22.7121 30.7323C23.7992 30.2545 24.375 29.4359 24.375 28.706V26.2941C24.375 25.5642 23.7992 24.7456 22.7121 24.2678C17.0448 21.7769 13.125 16.466 13.125 10.3125V6.875H9.375C8.33947 6.875 7.5 6.10549 7.5 5.15625C7.5 4.20701 8.33947 3.4375 9.375 3.4375L50.625 3.43758C51.6606 3.43759 52.5 4.20711 52.5 5.15635C52.5 6.10559 51.6605 6.87509 50.625 6.87507L46.875 6.87503V10.3125C46.875 16.466 42.9552 21.7769 37.2879 24.2678C36.2008 24.7456 35.625 25.5642 35.625 26.2941V28.706C35.625 29.4359 36.2008 30.2545 37.2879 30.7323C42.9552 33.2232 46.875 38.5341 46.875 44.6876V48.1251H50.625C51.6605 48.1251 52.5 48.8946 52.5 49.8438C52.5 50.7931 51.6605 51.5626 50.625 51.5626H9.375ZM16.875 6.87507V10.3126C16.875 12.1574 17.3279 13.9057 18.1379 15.4689H41.8621C42.6721 13.9057 43.125 12.1574 43.125 10.3126V6.87507H16.875ZM28.125 28.7061C28.125 31.1131 26.332 32.9535 24.3334 33.832C19.9177 35.7728 16.875 39.9062 16.875 44.6876C16.875 44.6876 20.1215 40.2237 28.125 39.6027V28.7061ZM31.875 28.7061V39.6027C39.8785 40.2237 43.125 44.6876 43.125 44.6876C43.125 39.9062 40.0823 35.7728 35.6666 33.832C33.668 32.9535 31.875 31.1131 31.875 28.7061Z" fill="#116E9B"/>
</svg>
