<svg xmlns="http://www.w3.org/2000/svg" width="33" height="32" viewBox="0 0 33 32" fill="none">
  <path d="M10.9 2.66675H22.1C26.3666 2.66675 29.8333 6.13341 29.8333 10.4001V21.6001C29.8333 23.6511 29.0185 25.6181 27.5683 27.0684C26.118 28.5187 24.151 29.3334 22.1 29.3334H10.9C6.63329 29.3334 3.16663 25.8667 3.16663 21.6001V10.4001C3.16663 8.34907 3.98139 6.38207 5.43167 4.93179C6.88195 3.48151 8.84895 2.66675 10.9 2.66675ZM10.6333 5.33341C9.36025 5.33341 8.13935 5.83913 7.23918 6.7393C6.33901 7.63948 5.83329 8.86037 5.83329 10.1334V21.8667C5.83329 24.5201 7.97996 26.6667 10.6333 26.6667H22.3666C23.6397 26.6667 24.8606 26.161 25.7607 25.2609C26.6609 24.3607 27.1666 23.1398 27.1666 21.8667V10.1334C27.1666 7.48008 25.02 5.33341 22.3666 5.33341H10.6333ZM23.5 7.33341C23.942 7.33341 24.3659 7.50901 24.6785 7.82157C24.991 8.13413 25.1666 8.55805 25.1666 9.00008C25.1666 9.44211 24.991 9.86603 24.6785 10.1786C24.3659 10.4912 23.942 10.6667 23.5 10.6667C23.0579 10.6667 22.634 10.4912 22.3214 10.1786C22.0089 9.86603 21.8333 9.44211 21.8333 9.00008C21.8333 8.55805 22.0089 8.13413 22.3214 7.82157C22.634 7.50901 23.0579 7.33341 23.5 7.33341ZM16.5 9.33341C18.2681 9.33341 19.9638 10.0358 21.214 11.286C22.4642 12.5363 23.1666 14.232 23.1666 16.0001C23.1666 17.7682 22.4642 19.4639 21.214 20.7141C19.9638 21.9644 18.2681 22.6667 16.5 22.6667C14.7318 22.6667 13.0362 21.9644 11.7859 20.7141C10.5357 19.4639 9.83329 17.7682 9.83329 16.0001C9.83329 14.232 10.5357 12.5363 11.7859 11.286C13.0362 10.0358 14.7318 9.33341 16.5 9.33341ZM16.5 12.0001C15.4391 12.0001 14.4217 12.4215 13.6715 13.1717C12.9214 13.9218 12.5 14.9392 12.5 16.0001C12.5 17.0609 12.9214 18.0784 13.6715 18.8285C14.4217 19.5787 15.4391 20.0001 16.5 20.0001C17.5608 20.0001 18.5782 19.5787 19.3284 18.8285C20.0785 18.0784 20.5 17.0609 20.5 16.0001C20.5 14.9392 20.0785 13.9218 19.3284 13.1717C18.5782 12.4215 17.5608 12.0001 16.5 12.0001Z" fill="white"/>
</svg>