<svg width="83" height="83" viewBox="0 0 83 83" fill="none" xmlns="http://www.w3.org/2000/svg">
<g clip-path="url(#clip0_1365:3259)">
<path d="M81.2881 3.70312H2.49121C1.60683 3.70312 0.889648 4.42014 0.889648 5.30469V65.2031C0.889648 66.0875 1.60683 66.8047 2.49121 66.8047H33.2311V77.6953C33.2311 78.3433 33.6216 78.9274 34.2204 79.1751C34.8191 79.4229 35.5082 79.2855 35.9659 78.827L41.8882 72.8965L47.7916 78.8254C48.0981 79.1333 48.5089 79.2969 48.9268 79.2969C49.1326 79.2969 49.3401 79.2573 49.5377 79.1756C50.1369 78.928 50.528 78.3438 50.528 77.6953V66.8047H81.2881C82.1725 66.8047 82.8896 66.0875 82.8896 65.2031V5.30469C82.8896 4.42014 82.1725 3.70312 81.2881 3.70312V3.70312ZM41.8896 59.6178C37.5513 59.6178 34.022 56.0885 34.022 51.7502C34.022 47.4118 37.5513 43.8825 41.8896 43.8825C46.228 43.8825 49.7573 47.4118 49.7573 51.7502C49.7573 56.0885 46.228 59.6178 41.8896 59.6178ZM43.0245 69.4983C42.7242 69.1968 42.3163 69.0272 41.8908 69.0268C41.8904 69.0268 41.89 69.0268 41.8896 69.0268C41.4646 69.0268 41.0568 69.196 40.7564 69.4967L36.4342 73.825V61.3775C38.0457 62.2942 39.9069 62.821 41.8896 62.821C43.8642 62.821 45.718 62.2988 47.3249 61.3893V73.8171L43.0245 69.4983ZM79.6865 63.6016H50.528V59.7578H67.835C68.7193 59.7578 69.4365 59.0406 69.4365 58.1562C69.4365 55.5069 71.5919 53.3516 74.2412 53.3516C75.1256 53.3516 75.8428 52.6344 75.8428 51.75V18.7578C75.8428 17.8733 75.1256 17.1562 74.2412 17.1562C71.5919 17.1562 69.4365 15.0009 69.4365 12.3516C69.4365 11.467 68.7193 10.75 67.835 10.75H49.0967C48.2123 10.75 47.4951 11.467 47.4951 12.3516C47.4951 13.2361 48.2123 13.9531 49.0967 13.9531H66.3944C67.0329 17.0859 69.5068 19.5599 72.6396 20.1986V50.3094C69.5067 50.9479 67.0329 53.4219 66.3944 56.5547H51.8624C52.5658 55.1006 52.9604 53.4707 52.9604 51.7502C52.9604 45.6458 47.994 40.6794 41.8896 40.6794C35.7853 40.6794 30.8188 45.6458 30.8188 51.7502C30.8188 53.4707 31.2136 55.1006 31.9169 56.5547H17.3849C16.7464 53.4217 14.2726 50.9479 11.1396 50.3094V20.1984C14.2726 19.5599 16.7464 17.0858 17.3849 13.953H34.6826C35.567 13.953 36.2842 13.2359 36.2842 12.3514C36.2842 11.4669 35.567 10.7498 34.6826 10.7498H15.9443C15.06 10.7498 14.3428 11.4669 14.3428 12.3514C14.3428 15.0007 12.1874 17.1561 9.53809 17.1561C8.6537 17.1561 7.93652 17.8731 7.93652 18.7577V51.7498C7.93652 52.6342 8.6537 53.3514 9.53809 53.3514C12.1874 53.3514 14.3428 55.5068 14.3428 58.1561C14.3428 59.0405 15.06 59.7576 15.9443 59.7576H33.2311V63.6014H4.09277V6.90625H79.6865V63.6016Z" fill="#116E9B"/>
<path d="M30.332 21.1403C30.332 22.0248 31.0492 22.7418 31.9336 22.7418H51.8465C52.7308 22.7418 53.448 22.0248 53.448 21.1403C53.448 20.2557 52.7308 19.5387 51.8465 19.5387H31.9336C31.0492 19.5387 30.332 20.2557 30.332 21.1403V21.1403Z" fill="#116E9B"/>
<path d="M51.8465 33.6324H31.9336C31.0492 33.6324 30.332 34.3495 30.332 35.234C30.332 36.1186 31.0492 36.8356 31.9336 36.8356H51.8465C52.7308 36.8356 53.448 36.1186 53.448 35.234C53.448 34.3495 52.7308 33.6324 51.8465 33.6324Z" fill="#116E9B"/>
<path d="M17.0654 28.1871C17.0654 29.0717 17.7826 29.7887 18.667 29.7887H65.1123C65.9967 29.7887 66.7139 29.0717 66.7139 28.1871C66.7139 27.3026 65.9967 26.5856 65.1123 26.5856H18.667C17.7826 26.5856 17.0654 27.3026 17.0654 28.1871Z" fill="#116E9B"/>
<path d="M41.8896 13.9531C42.3109 13.9531 42.7241 13.7818 43.0218 13.4839C43.3198 13.186 43.4912 12.7728 43.4912 12.3516C43.4912 11.9304 43.3198 11.5171 43.0218 11.2193C42.7241 10.9214 42.3109 10.75 41.8896 10.75C41.4684 10.75 41.0552 10.9214 40.7573 11.2193C40.4595 11.5171 40.2881 11.9304 40.2881 12.3516C40.2881 12.7728 40.4593 13.186 40.7573 13.4839C41.0554 13.7818 41.4684 13.9531 41.8896 13.9531Z" fill="#116E9B"/>
</g>
<defs>
<clipPath id="clip0_1365:3259">
<rect width="82" height="82" fill="white" transform="translate(0.889648 0.5)"/>
</clipPath>
</defs>
</svg>
