<svg xmlns="http://www.w3.org/2000/svg" width="32" height="32" viewBox="0 0 32 32" fill="none">
  <path d="M27.34 3.99998H4.66C3.41978 3.99998 2.4 5.01976 2.4 6.25998V25.74C2.4 26.9802 3.41978 28 4.66 28H27.34C28.5802 28 29.6 26.9802 29.6 25.74V6.25998C29.6 5.01976 28.5802 3.99998 27.34 3.99998ZM10.4 23.9999H7.59998V14.56H10.4V23.9999ZM8 13.5999C7.11998 13.5999 6.39998 12.8799 6.39998 11.9999C6.39998 11.1199 7.11998 10.3999 8 10.3999C8.88 10.3999 9.6 11.1199 9.6 11.9999C9.6 12.8799 8.88 13.5999 8 13.5999ZM24 23.9999H21.2V18.7199C21.2 17.0399 20.4798 16.3199 18.88 16.3199C17.2798 16.3199 16.64 17.0399 16.64 18.7199V23.9999H13.84V14.56H16.64V16.8799H16.72C17.12 16.0799 18 15.1999 19.36 15.1999C21.6 15.1999 24 16.3999 24 19.9999V23.9999Z" fill="white"/>
</svg>
