<svg xmlns="http://www.w3.org/2000/svg" width="310" height="139" viewBox="0 0 310 139" fill="none">
  <path d="M307.776 29.1245C306.713 27.7142 305.291 26.616 303.657 25.9451C302.024 25.2742 300.24 25.0553 298.493 25.3115C265.319 30.1701 234.37 44.5837 207.007 67.6423C206.317 65.236 205.479 62.8751 204.495 60.5732C202.801 56.3823 201.049 52.0488 201.879 48.9609C202.52 46.5776 205.845 43.9453 209.062 41.3999C213.05 38.2431 217.571 34.665 219.614 29.667C221.44 25.2041 220.757 20.0879 220.097 15.1406C219.705 12.7129 219.493 10.2595 219.463 7.80057C219.493 6.43192 219.145 5.08148 218.46 3.89666C217.774 2.71183 216.776 1.73815 215.574 1.08188C214.364 0.411506 212.993 0.0863109 211.61 0.141751C210.228 0.197192 208.887 0.63114 207.734 1.39628C183.31 17.5857 165.377 41.7843 154.99 72.2499C144.603 41.7899 126.687 17.5834 102.266 1.39628C101.113 0.630776 99.7722 0.196656 98.3894 0.141301C97.0066 0.0859461 95.6352 0.411479 94.4248 1.08237C93.2237 1.73876 92.2258 2.71242 91.5402 3.89712C90.8545 5.08183 90.5074 6.43207 90.5366 7.80057C90.5063 10.2595 90.2945 12.7128 89.9028 15.1406C89.2428 20.0878 88.56 25.2031 90.3852 29.666C92.4287 34.6645 96.9502 38.2426 100.939 41.3999C104.155 43.9453 107.481 46.5771 108.122 48.9604C108.952 52.0483 107.199 56.3823 105.505 60.5732C104.522 62.8749 103.683 65.2358 102.993 67.642C75.6304 44.5832 44.6808 30.1696 11.5063 25.311C9.76001 25.0561 7.9773 25.2754 6.34477 25.9458C4.71224 26.6162 3.28993 27.713 2.22667 29.1216C1.16342 30.5302 0.498324 32.1986 0.300999 33.9524C0.103673 35.7061 0.381365 37.4807 1.10502 39.0903C2.27448 41.8394 3.30475 44.6457 4.19192 47.4985C6.30612 53.8955 8.49193 60.5102 13.1519 64.6879C18.42 69.4106 25.7119 71.0234 32.7628 72.5834C38.9107 73.9434 44.7174 75.228 47.3628 78.2788C50.6802 82.1044 51.1421 88.9223 51.5889 95.5161C52.0361 102.118 52.4989 108.945 55.8413 114.041C59.8242 120.111 66.813 123.804 72.979 127.062C78.438 129.948 83.5942 132.672 85.2134 136.108C87.6821 141.348 86.1034 148.434 84.5767 155.288C83.7703 158.557 83.1823 161.876 82.8167 165.222H73.1762C71.9827 165.222 70.8382 165.696 69.9942 166.54C69.1503 167.384 68.6762 168.529 68.6762 169.722V188.187C68.6648 223.871 74.4836 259.317 85.9027 293.124L91.9681 311.101H84.2162C83.0227 311.101 81.8782 311.575 81.0342 312.419C80.1903 313.263 79.7162 314.407 79.7162 315.601V343.364C79.7162 344.558 80.1903 345.703 81.0342 346.546C81.8782 347.39 83.0227 347.864 84.2162 347.864H225.784C226.978 347.864 228.122 347.39 228.966 346.546C229.81 345.703 230.284 344.558 230.284 343.364V315.601C230.284 314.407 229.81 313.263 228.966 312.419C228.122 311.575 226.978 311.101 225.784 311.101H218.033L224.099 293.124C235.517 259.317 241.336 223.871 241.324 188.187V169.723C241.324 168.529 240.85 167.385 240.006 166.541C239.162 165.697 238.018 165.223 236.824 165.223H227.184C226.819 161.876 226.231 158.557 225.424 155.288C223.898 148.435 222.319 141.348 224.788 136.108C226.407 132.672 231.563 129.947 237.022 127.063C243.188 123.804 250.176 120.111 254.16 114.041C257.503 108.945 257.965 102.118 258.412 95.5163C258.859 88.9225 259.32 82.1046 262.637 78.279C265.283 75.2282 271.09 73.9435 277.238 72.5836C284.29 71.0236 291.581 69.4108 296.848 64.6881C301.508 60.5104 303.695 53.8952 305.808 47.4981C306.695 44.6458 307.726 41.8398 308.895 39.0909C309.62 37.482 309.898 35.7078 309.701 33.9543C309.504 32.2007 308.839 30.5325 307.776 29.1245ZM210.528 10.3774C210.65 12.3818 210.916 14.3794 211.176 16.331C211.68 20.1093 212.201 24.0166 211.284 26.2602C210.134 29.0732 206.749 31.7524 203.476 34.3427C199.113 37.7963 194.601 41.3676 193.188 46.625C191.574 52.625 194.006 58.6396 196.151 63.9463C197.553 67.4155 199.003 71.0029 198.702 73.3222C198.588 74.1022 198.379 74.8653 198.079 75.5946C186.408 86.639 175.818 98.7732 166.454 111.832C162.262 117.637 158.458 123.368 155.004 128.921C154.659 128.366 154.294 127.801 153.941 127.243C154.371 118.48 155.351 109.753 156.876 101.114C164.098 60.5986 182.141 30.0874 210.528 10.3774ZM111.298 73.3222C110.997 71.0034 112.447 67.416 113.849 63.9467C115.994 58.6401 118.426 52.6255 116.813 46.625C115.4 41.3676 110.888 37.7963 106.524 34.3427C103.251 31.7527 99.8659 29.0727 98.7155 26.2602C97.7985 24.0171 98.3195 20.1102 98.8239 16.331C99.0839 14.3794 99.3508 12.3818 99.4728 10.3764C124.766 27.9404 141.843 54.0932 150.373 88.2539C149.489 91.9397 148.703 95.6999 148.015 99.5346C147.055 104.92 146.352 110.122 145.838 115.069C145.083 113.992 144.327 112.914 143.546 111.832C134.182 98.7732 123.592 86.6388 111.921 75.5944C111.621 74.8651 111.412 74.1021 111.298 73.3222ZM93.3547 132.272C90.4547 126.119 83.7082 122.553 77.1838 119.106C71.7238 116.22 66.0778 113.237 63.3664 109.104C61.3181 105.982 60.9538 100.603 60.5681 94.908C60.0466 87.2112 59.4558 78.488 54.1623 72.3831C49.5676 67.0837 42.0129 65.4124 34.7067 63.7961C28.7888 62.4871 22.6696 61.1331 19.1599 57.9871C16.2853 55.4099 14.5622 50.1956 12.738 44.6746C11.7564 41.5243 10.6126 38.4268 9.31122 35.3946C9.25052 35.2568 9.22773 35.1052 9.24522 34.9557C9.26271 34.8061 9.31984 34.6639 9.4107 34.5439C9.50156 34.4238 9.62285 34.3302 9.76203 34.2727C9.9012 34.2152 10.0532 34.1959 10.2023 34.2169C37.1296 38.1602 62.4367 48.5875 85.4206 65.2086C103.905 78.5757 120.955 95.9639 136.096 116.889C147.023 132.087 156.514 148.268 164.445 165.223H91.8663C92.2261 162.54 92.725 159.877 93.361 157.246C95.1303 149.302 97.1364 140.298 93.3547 132.272ZM221.285 338.864H88.7155V320.101H221.284L221.285 338.864ZM232.325 188.187C232.336 222.892 226.677 257.366 215.572 290.247L208.535 311.101H101.466L94.4294 290.247C83.3235 257.367 77.6643 222.893 77.6755 188.187V174.223H232.324L232.325 188.187ZM300.69 35.3943C299.388 38.4264 298.245 41.5239 297.263 44.6743C295.439 50.1953 293.715 55.4096 290.84 57.9873C287.33 61.1333 281.211 62.4873 275.294 63.7963C267.988 65.4126 260.434 67.0839 255.838 72.3828C250.544 78.4878 249.954 87.2114 249.432 94.9082C249.047 100.603 248.683 105.982 246.634 109.104C243.922 113.237 238.277 116.22 232.817 119.106C226.293 122.554 219.546 126.119 216.647 132.273C212.865 140.298 214.871 149.302 216.64 157.246C217.276 159.877 217.775 162.539 218.135 165.223H174.398C170.939 157.56 166.265 148.084 160.238 137.653C164.249 130.958 168.788 123.96 173.904 116.889C189.046 95.9634 206.095 78.5752 224.579 65.2081C247.564 48.587 272.87 38.1597 299.798 34.2164C299.947 34.1954 300.099 34.2147 300.238 34.2721C300.378 34.3296 300.499 34.4232 300.59 34.5433C300.681 34.6634 300.738 34.8055 300.755 34.9551C300.773 35.1047 300.751 35.2564 300.69 35.3943Z" fill="white"/>
</svg>