<svg xmlns="http://www.w3.org/2000/svg" width="304" height="165" viewBox="0 0 304 165" fill="none">
  <path d="M303.279 100.611C303.229 99.631 302.854 98.6954 302.213 97.9523C301.573 97.2093 300.703 96.7012 299.742 96.5083C291.64 94.9414 283.396 94.2381 275.147 94.4102C275.033 94.4252 274.917 94.4173 274.806 94.3869C274.695 94.3565 274.591 94.3043 274.501 94.2333C274.41 94.1623 274.335 94.0739 274.279 93.9733C274.223 93.8727 274.187 93.7619 274.175 93.6475C274.14 93.544 274.126 93.4345 274.134 93.3255C274.143 93.2166 274.173 93.1105 274.224 93.0137C274.274 92.9168 274.344 92.8313 274.429 92.7623C274.513 92.6933 274.611 92.6422 274.716 92.6122C281.751 89.4967 289.126 87.2146 296.691 85.8126C297.288 85.7061 297.857 85.4773 298.363 85.1405C298.868 84.8037 299.298 84.3661 299.627 83.8551C299.955 83.3442 300.175 82.7708 300.272 82.1709C300.369 81.5711 300.341 80.9576 300.19 80.369C297.279 69.0044 292.509 58.2008 286.073 48.396C285.993 48.2738 285.906 48.155 285.815 48.0415L284.437 46.3359C283.922 45.698 283.239 45.2164 282.465 44.9452C281.692 44.6739 280.858 44.6238 280.058 44.8003C268.828 47.4105 257.995 51.5064 247.844 56.9801C247.474 57.2095 247.03 57.2896 246.602 57.204C246.175 57.1183 245.796 56.8735 245.542 56.5189C245.253 56.2104 245.093 55.8021 245.097 55.3789C245.101 54.9556 245.268 54.5502 245.563 54.247C252.01 46.2952 259.51 39.2605 267.856 33.3371C268.354 32.9908 268.775 32.5455 269.093 32.0289C269.411 31.5124 269.62 30.9357 269.706 30.3349C269.791 29.7341 269.752 29.122 269.591 28.5369C269.43 27.9518 269.15 27.4063 268.769 26.9344L266.954 24.6885C261.761 18.0442 255.309 12.491 247.969 8.34719C240.629 4.20333 232.544 1.55016 224.178 0.539681C219.851 -0.0177961 215.454 0.410955 211.316 1.7939C207.178 3.17684 203.406 5.47821 200.281 8.52604C197.156 11.5739 194.76 15.2894 193.271 19.3948C191.782 23.5003 191.238 27.8896 191.682 32.2348L192.562 42.0238C192.671 43.2275 192.517 44.4404 192.112 45.5788C191.706 46.7173 191.059 47.7541 190.215 48.6179C189.37 49.4816 188.349 50.1517 187.221 50.5819C186.093 51.0121 184.885 51.1921 183.681 51.1096L173.886 50.4393C169.538 50.0892 165.167 50.7275 161.099 52.3065C157.032 53.8856 153.374 56.3645 150.398 59.5581C147.422 62.7517 145.205 66.5774 143.913 70.7493C142.621 74.9212 142.288 79.3314 142.938 83.6504C144.124 91.9929 146.941 100.02 151.228 107.271C155.515 114.522 161.188 120.856 167.923 125.91L170.256 127.716C170.79 128.123 171.409 128.402 172.066 128.533C168.682 164.891 167.88 211.687 169.672 268.329H142.615C147.241 223.059 145.276 191.08 140.255 168.491C144.493 159.292 146.461 149.209 145.992 139.09C145.836 134.725 144.697 130.452 142.659 126.59C140.622 122.727 137.739 119.376 134.226 116.786C130.713 114.197 126.661 112.435 122.373 111.634C118.084 110.832 113.67 111.011 109.461 112.158L99.9582 114.623C98.7897 114.926 97.5694 114.972 96.3815 114.757C95.1937 114.542 94.0665 114.072 93.0777 113.379C92.0889 112.685 91.2621 111.786 90.6542 110.742C90.0463 109.697 89.6719 108.534 89.5567 107.331L88.6202 97.5466C88.2564 93.194 86.9149 88.98 84.6958 85.2194C82.4768 81.4589 79.4375 78.2491 75.8053 75.8299C72.173 73.4107 68.0417 71.8446 63.7199 71.2488C59.3982 70.6529 54.9978 71.0427 50.8477 72.3889C42.8203 74.9203 35.3703 79.0115 28.9238 84.4286C22.4774 89.8457 17.161 96.4822 13.2789 103.959L11.8783 106.558C11.5904 107.092 11.4157 107.68 11.365 108.285C11.3143 108.889 11.3886 109.498 11.5834 110.073C11.7782 110.648 12.0893 111.176 12.4972 111.625C12.9051 112.074 13.401 112.434 13.9541 112.682C23.2465 116.965 31.9127 122.496 39.7135 129.121C40.0592 129.365 40.2977 129.733 40.3793 130.148C40.4608 130.563 40.3792 130.994 40.1514 131.351C39.9676 131.747 39.6403 132.058 39.2358 132.221C38.8314 132.384 38.3801 132.387 37.9737 132.229C26.9897 128.721 15.5883 126.694 4.06981 126.2C3.25145 126.179 2.4431 126.384 1.73357 126.793C1.02404 127.202 0.440785 127.798 0.0478907 128.518L-0.991887 130.448C-1.0612 130.577 -1.12397 130.709 -1.17995 130.844C-5.70145 141.668 -8.40202 153.167 -9.17214 164.874C-9.21196 165.48 -9.12632 166.088 -8.92059 166.66C-8.71486 167.232 -8.39348 167.755 -7.97654 168.196C-7.55961 168.638 -7.0561 168.989 -6.49755 169.227C-5.939 169.464 -5.33743 169.584 -4.73049 169.579C2.96217 169.564 10.6304 170.447 18.1191 172.208C18.2278 172.218 18.3333 172.251 18.4292 172.303C18.5251 172.355 18.6094 172.426 18.677 172.512C18.7446 172.598 18.794 172.697 18.8223 172.802C18.8506 172.908 18.8572 173.018 18.8416 173.126C18.8507 173.241 18.8367 173.357 18.8004 173.466C18.764 173.575 18.7062 173.676 18.6302 173.763C18.5542 173.849 18.4616 173.92 18.358 173.97C18.2543 174.02 18.1416 174.049 18.0267 174.055C9.88753 175.41 1.91404 177.622 -5.76125 180.654C-6.67059 181.021 -7.43187 181.681 -7.92477 182.53C-8.41767 183.378 -8.6141 184.367 -8.483 185.34C-8.0224 188.757 -7.41687 192.057 -6.68334 195.147L1.52182 229.685C2.17841 232.444 3.74402 234.901 5.96616 236.661C8.18831 238.42 10.9375 239.378 13.7702 239.381C14.2586 239.381 14.7465 239.353 15.2316 239.296L50.4537 235.203C53.6038 234.837 56.908 234.278 60.2733 233.542C61.2312 233.333 62.0921 232.81 62.7199 232.056C63.3478 231.302 63.7068 230.36 63.7402 229.379C63.9607 221.121 63.3099 212.863 61.7984 204.741C61.7645 204.631 61.753 204.515 61.7645 204.401C61.7761 204.286 61.8105 204.175 61.8658 204.074C61.921 203.973 61.9959 203.884 62.0861 203.812C62.1763 203.741 62.2799 203.688 62.3908 203.657C62.487 203.605 62.5928 203.574 62.7016 203.564C62.8104 203.555 62.92 203.568 63.0238 203.602C63.1275 203.636 63.2232 203.691 63.3051 203.764C63.3869 203.836 63.4532 203.924 63.4999 204.023C67.7169 210.465 71.1681 217.378 73.7833 224.621C73.9855 225.194 74.3037 225.719 74.718 226.164C75.1322 226.608 75.6335 226.961 76.1906 227.203C76.7476 227.444 77.3484 227.567 77.9554 227.565C78.5623 227.563 79.1623 227.436 79.7178 227.191C90.4422 222.463 100.311 215.989 108.924 208.033C109.031 207.934 109.134 207.829 109.231 207.72L110.687 206.081C111.232 205.468 111.595 204.715 111.736 203.907C111.877 203.099 111.791 202.267 111.486 201.505C107.083 190.837 101.281 180.804 94.2326 171.669C93.9459 171.341 93.7946 170.915 93.8092 170.479C93.8239 170.043 94.0034 169.629 94.3115 169.32C94.5681 168.984 94.9446 168.759 95.3624 168.694C95.7802 168.629 96.2071 168.728 96.5539 168.97C105.441 174.042 113.596 180.304 120.793 187.582C121.215 188.018 121.722 188.361 122.283 188.592C122.844 188.822 123.446 188.934 124.052 188.921C124.659 188.907 125.255 188.769 125.806 188.514C126.356 188.26 126.848 187.895 127.251 187.441L129.169 185.282C130.736 183.563 132.209 181.76 133.581 179.881C137.007 200.921 137.853 229.502 133.782 268.33H78.6078C77.9461 268.33 77.2929 268.479 76.6965 268.766C76.1002 269.053 75.576 269.471 75.1628 269.988C74.7496 270.506 74.458 271.11 74.3096 271.755C74.1612 272.401 74.1599 273.072 74.3056 273.718L99.6444 386.088C100.898 391.762 104.054 396.835 108.588 400.463C113.121 404.092 118.759 406.057 124.563 406.032H185.323C191.127 406.057 196.765 404.092 201.298 400.463C205.832 396.835 208.988 391.761 210.242 386.087L235.581 273.717C235.727 273.071 235.725 272.4 235.577 271.755C235.429 271.109 235.137 270.505 234.724 269.988C234.311 269.47 233.786 269.053 233.19 268.766C232.594 268.478 231.94 268.329 231.279 268.329H178.499C176.3 199.028 178.228 151.781 181.824 119.58C186.404 113.899 191.493 108.65 197.028 103.898C197.325 103.597 197.726 103.422 198.149 103.409C198.571 103.396 198.982 103.547 199.296 103.83C199.656 104.076 199.909 104.45 200.004 104.876C200.098 105.302 200.028 105.748 199.807 106.124C194.559 116.402 190.703 127.335 188.339 138.633C188.179 139.437 188.247 140.271 188.535 141.039C188.822 141.808 189.318 142.481 189.966 142.983L191.699 144.325C191.815 144.414 191.934 144.497 192.058 144.575C201.987 150.806 212.878 155.348 224.29 158.018C224.881 158.156 225.494 158.17 226.091 158.06C226.687 157.95 227.255 157.718 227.758 157.378C228.261 157.038 228.689 156.598 229.014 156.085C229.34 155.572 229.556 154.997 229.649 154.397C230.887 146.795 233.007 139.364 235.967 132.255C235.995 132.149 236.043 132.05 236.111 131.964C236.178 131.878 236.262 131.806 236.357 131.754C236.453 131.701 236.558 131.668 236.666 131.657C236.775 131.646 236.885 131.658 236.989 131.69C237.103 131.7 237.215 131.733 237.317 131.786C237.419 131.84 237.509 131.914 237.582 132.003C237.655 132.092 237.709 132.195 237.742 132.306C237.774 132.416 237.784 132.532 237.771 132.647C237.78 140.908 238.66 149.145 240.397 157.221C240.61 158.179 241.136 159.038 241.892 159.664C242.648 160.289 243.59 160.644 244.57 160.673C245.656 160.706 246.731 160.722 247.796 160.722C250.106 160.722 252.36 160.646 254.528 160.495L289.9 158.02C292.977 157.804 295.868 156.465 298.025 154.258C300.183 152.051 301.457 149.128 301.607 146.044L303.315 110.583C303.468 107.41 303.456 104.055 303.279 100.611ZM123.741 178.104C116.815 171.67 109.182 166.045 100.988 161.335C98.8819 160.055 96.3901 159.567 93.9575 159.957C91.525 160.347 89.3102 161.59 87.7088 163.465C86.0574 165.305 85.1023 167.667 85.0094 170.139C84.9166 172.612 85.6918 175.039 87.2006 176.998C93.1848 184.775 98.2266 193.235 102.22 202.201C95.6467 208.152 88.2929 213.178 80.3622 217.138C77.7611 210.892 74.5962 204.897 70.9067 199.228C69.6797 197.331 67.8336 195.918 65.683 195.231C63.5324 194.543 61.2103 194.624 59.1124 195.459C57.0144 196.293 55.2704 197.83 54.1774 199.808C53.0845 201.786 52.7102 204.082 53.1184 206.305C54.2919 212.671 54.9134 219.127 54.976 225.6C53.0834 225.944 51.2302 226.223 49.4362 226.431L14.215 230.524C13.2958 230.631 12.3693 230.397 11.6113 229.865C10.8532 229.334 10.3164 228.542 10.1026 227.641L1.89755 193.104C1.47977 191.344 1.10698 189.506 0.783481 187.607C6.8802 185.452 13.1517 183.829 19.5279 182.756C21.7539 182.38 23.7807 181.242 25.263 179.538C26.7453 177.833 27.5915 175.666 27.6574 173.407C27.7233 171.148 27.0048 168.936 25.6243 167.147C24.2438 165.359 22.2868 164.105 20.0865 163.599C13.5036 162.067 6.79478 161.14 0.043479 160.829C1.04749 152.013 3.24839 143.376 6.58527 135.156C16.3661 135.847 26.0305 137.697 35.3761 140.667C37.7311 141.417 40.2741 141.317 42.563 140.384C44.8519 139.451 46.742 137.745 47.9046 135.561C49.1165 133.414 49.5261 130.904 49.0602 128.482C48.5944 126.06 47.2835 123.882 45.3617 122.338C38.1388 116.24 30.248 110.983 21.8407 106.667C28.6875 94.3248 39.9968 85.0783 53.4434 80.8284C56.3421 79.8679 59.4211 79.58 62.4474 79.9867C65.4736 80.3934 68.3678 81.4839 70.911 83.1757C73.4542 84.8675 75.5798 87.1163 77.1268 89.752C78.6739 92.3876 79.6019 95.341 79.8407 98.3888L80.7772 108.173C81.1214 111.734 82.5695 115.098 84.9186 117.793C84.5225 118.074 84.176 118.419 83.8933 118.814L32.9069 191.718C32.5694 192.193 32.3291 192.73 32.1998 193.298C32.0705 193.866 32.0548 194.454 32.1537 195.028C32.2525 195.603 32.4639 196.152 32.7757 196.644C33.0874 197.136 33.4934 197.561 33.9701 197.895C34.4469 198.23 34.985 198.466 35.5534 198.591C36.1219 198.716 36.7094 198.727 37.2822 198.624C37.855 198.52 38.4016 198.305 38.8907 197.989C39.3797 197.673 39.8014 197.263 40.1316 196.783L91.1179 123.879C91.3918 123.478 91.5969 123.034 91.7249 122.565C95.0585 123.854 98.7113 124.066 102.171 123.171L111.674 120.705C114.616 119.888 117.705 119.751 120.708 120.305C123.711 120.859 126.548 122.09 129.006 123.904C131.463 125.718 133.477 128.068 134.893 130.776C136.31 133.484 137.093 136.479 137.183 139.534C137.791 153.639 132.98 167.44 123.741 178.104ZM201.637 384.142C200.816 387.857 198.75 391.179 195.782 393.554C192.814 395.93 189.123 397.217 185.323 397.2H124.563C120.763 397.217 117.072 395.93 114.103 393.554C111.135 391.179 109.069 387.857 108.248 384.142L84.1244 277.16H225.762L201.637 384.142ZM294.505 110.157L292.797 145.618C292.752 146.543 292.37 147.42 291.722 148.082C291.075 148.744 290.208 149.145 289.285 149.21L253.914 151.685C252.111 151.811 250.238 151.879 248.315 151.889C247.185 145.515 246.608 139.055 246.591 132.582C246.593 130.311 245.802 128.111 244.353 126.364C242.904 124.617 240.89 123.434 238.66 123.019C238.034 122.898 237.398 122.836 236.76 122.836C234.832 122.834 232.948 123.412 231.351 124.495C229.754 125.577 228.518 127.115 227.803 128.908C225.22 135.161 223.213 141.637 221.806 148.255C213.282 145.826 205.13 142.244 197.574 137.608C199.849 128.059 203.248 118.813 207.699 110.066C208.821 107.861 209.136 105.333 208.59 102.92C208.044 100.507 206.671 98.3616 204.709 96.857C202.79 95.3097 200.384 94.496 197.921 94.5614C195.458 94.6268 193.099 95.567 191.264 97.214C184.077 103.354 177.61 110.292 171.986 117.894C160.941 109.118 153.673 96.4393 151.677 82.4635C151.203 79.4434 151.421 76.3549 152.315 73.4317C153.21 70.5085 154.756 67.8273 156.838 65.5908C158.92 63.3543 161.483 61.6213 164.332 60.5227C167.182 59.4242 170.243 58.989 173.286 59.25L183.08 59.9203C186.645 60.1607 190.196 59.2787 193.235 57.3976C193.448 57.8348 193.731 58.2335 194.074 58.5773L257.604 120.828C258.44 121.647 259.566 122.1 260.736 122.087C261.905 122.075 263.022 121.597 263.84 120.76C264.658 119.923 265.111 118.795 265.098 117.624C265.085 116.453 264.609 115.335 263.773 114.516L200.243 52.2657C199.892 51.9298 199.488 51.6548 199.047 51.452C200.86 48.3689 201.665 44.7953 201.348 41.2316L200.467 31.4428C200.141 28.4032 200.51 25.3291 201.545 22.4533C202.581 19.5774 204.256 16.975 206.445 14.843C208.633 12.7111 211.277 11.1054 214.177 10.1474C217.076 9.18947 220.155 8.90437 223.181 9.31369C237.178 11.0134 249.994 18.0149 258.996 28.88C251.527 34.6729 244.739 41.296 238.763 48.6222C237.158 50.4939 236.27 52.8758 236.258 55.3425C236.246 57.8091 237.11 60.1997 238.696 62.0873C240.241 64.0186 242.413 65.3471 244.834 65.8419C247.255 66.3366 249.773 65.9663 251.95 64.7953C260.589 60.1517 269.748 56.5505 279.234 54.0674C284.026 61.5308 287.779 69.6139 290.389 78.093C283.81 79.6443 277.387 81.7935 271.199 84.5138C269.129 85.4166 267.436 87.0099 266.408 89.0224C265.38 91.0348 265.081 93.3418 265.561 95.5504C266.042 97.7589 267.272 99.7323 269.043 101.134C270.814 102.536 273.016 103.28 275.273 103.239C281.737 103.117 288.2 103.556 294.589 104.55C294.62 106.475 294.592 108.351 294.505 110.157Z" fill="white"/>
</svg>