<svg xmlns="http://www.w3.org/2000/svg" width="33" height="32" viewBox="0 0 33 32" fill="none">
  <path d="M29.8333 5.34668C28.5 6.00002 27.1933 6.26535 25.8333 6.66668C24.3386 4.98002 22.1226 4.88668 19.9933 5.68402C17.864 6.48135 16.4693 8.43068 16.5 10.6667V12C12.1733 12.1107 8.31996 10.14 5.83329 6.66668C5.83329 6.66668 0.257293 16.5774 11.1666 21.3334C8.67063 22.996 6.18129 24.1174 3.16663 24C7.57729 26.404 12.384 27.2307 16.5453 26.0227C21.3186 24.636 25.2413 21.0587 26.7466 15.7C27.1957 14.0702 27.4187 12.3865 27.4093 10.696C27.4066 10.364 29.4226 7.00002 29.8333 5.34535V5.34668Z" stroke="white" stroke-width="2" stroke-linecap="round" stroke-linejoin="round"/>
</svg>