<svg width="60" height="55" viewBox="0 0 60 55" fill="none" xmlns="http://www.w3.org/2000/svg">
<path d="M45.5107 1.11914C49.0609 0.305552 52.5 2.76693 52.5 6.12144V10.3125H54.375C57.4816 10.3125 60 12.621 60 15.4688V46.4063C60 49.254 57.4816 51.5625 54.375 51.5625H5.625C2.5184 51.5625 0 49.254 0 46.4063V15.4688C0 12.6988 2.3827 10.439 5.37179 10.3176L45.5107 1.11914ZM20.8558 10.3125H48.75V6.12144C48.75 5.00327 47.6036 4.18281 46.4202 4.454L20.8558 10.3125ZM5.625 13.75C4.58947 13.75 3.75 14.5195 3.75 15.4688V46.4063C3.75 47.3555 4.58947 48.125 5.625 48.125H54.375C55.4105 48.125 56.25 47.3555 56.25 46.4063V15.4688C56.25 14.5195 55.4105 13.75 54.375 13.75H5.625Z" fill="#106994"/>
</svg>
